<svg width="128" height="128" viewBox="0 0 128 128" fill="none" xmlns="http://www.w3.org/2000/svg">
<g clip-path="url(#clip0_364_64)">
<path d="M60.8891 8.92913C62.26 6.50993 65.7405 6.50996 67.1113 8.92918L78.6675 29.3227L64 55.2066L49.3325 29.3228L60.8891 8.92913Z" fill="white"/>
<path d="M68.0343 62.6048L82.7808 36.5816L127.523 115.538C129.093 118.309 126.54 121.601 123.471 120.763L91.7243 112.095L87.2275 102.679L87.2257 102.675L68.0343 62.6048Z" fill="white"/>
<path d="M45.2191 36.5816L59.9656 62.6048L40.7742 102.675L36.2757 112.095L4.52932 120.763C1.45953 121.601 -1.09322 118.309 0.477337 115.538L45.2191 36.5816Z" fill="white"/>
<path d="M48.311 103.507L64 70.7495L79.6889 103.507L66.5513 116.896C65.1495 118.325 62.8505 118.325 61.4486 116.896L48.311 103.507Z" fill="white"/>
</g>
<defs>
<clipPath id="clip0_364_64">
<rect width="128" height="128" fill="white"/>
</clipPath>
</defs>
</svg>
