<svg width="105" height="34" viewBox="0 0 105 34" fill="none" xmlns="http://www.w3.org/2000/svg">
<g clip-path="url(#clip0_3522_532)">
<path d="M20.3681 5.81386C20.6466 5.32246 21.3535 5.32246 21.632 5.81387L23.9793 9.95631L21 15.214L18.0207 9.95632L20.3681 5.81386Z" fill="#538EFF"/>
<path d="M21.8195 16.7167L24.8148 11.4308L33.903 27.4687C34.2221 28.0317 33.7035 28.7004 33.08 28.5301L26.6315 26.7695L25.7181 24.8568L25.7177 24.8561L21.8195 16.7167Z" fill="#538EFF"/>
<path d="M17.1851 11.4308L20.1805 16.7167L16.2823 24.8561L15.3685 26.7695L8.92002 28.5301C8.29647 28.7004 7.77794 28.0317 8.09696 27.4687L17.1851 11.4308Z" fill="#538EFF"/>
<path d="M17.8132 25.025L21 18.3711L24.1868 25.025L21.5182 27.7446C21.2335 28.0348 20.7665 28.0348 20.4817 27.7446L17.8132 25.025Z" fill="#538EFF"/>
</g>
<path d="M85.5902 23.7338L87.1783 22.0101C87.7321 22.5847 88.3836 23.0361 89.1329 23.3644C89.8984 23.6928 90.6965 23.8569 91.5272 23.8569C92.3742 23.8569 93.0502 23.701 93.5551 23.3891C94.06 23.0607 94.3125 22.6421 94.3125 22.1332C94.3125 21.6736 94.0845 21.3206 93.6284 21.0744C93.1886 20.8117 92.3986 20.6065 91.2585 20.4588C89.4668 20.1961 88.1637 19.7857 87.3493 19.2276C86.5512 18.653 86.1522 17.8651 86.1522 16.8637C86.1522 16.0757 86.3802 15.3862 86.8363 14.7953C87.2923 14.2043 87.9113 13.7446 88.6931 13.4163C89.4749 13.088 90.3708 12.9238 91.3806 12.9238C92.5534 12.9238 93.5877 13.1208 94.4835 13.5148C95.3956 13.9088 96.1856 14.4423 96.8534 15.1154L95.2653 16.8637C94.7604 16.3055 94.1822 15.8623 93.5307 15.534C92.8791 15.2057 92.1706 15.0415 91.4051 15.0415C90.6395 15.0415 90.0206 15.1975 89.5482 15.5094C89.0759 15.8048 88.8397 16.1906 88.8397 16.6667C88.8397 17.0607 89.0514 17.3644 89.4749 17.5778C89.9147 17.7748 90.6802 17.9471 91.7715 18.0949C93.5632 18.3575 94.8826 18.7926 95.7296 19.4C96.5765 19.9909 97 20.8446 97 21.9609C97 22.7653 96.7638 23.4711 96.2915 24.0785C95.8191 24.6859 95.1676 25.162 94.3369 25.5067C93.5062 25.8351 92.5371 25.9992 91.4295 25.9992C90.2405 25.9992 89.1492 25.8022 88.1556 25.4082C87.162 24.9978 86.3069 24.4397 85.5902 23.7338Z" fill="white"/>
<path d="M82.3995 21.8377L84.1586 23.5614C83.556 24.3166 82.8149 24.9158 81.9353 25.359C81.0558 25.7858 80.0459 25.9992 78.9057 25.9992C77.6515 25.9992 76.5277 25.7201 75.5341 25.162C74.5568 24.5874 73.7831 23.8159 73.213 22.8473C72.643 21.8624 72.3579 20.7297 72.3579 19.4492C72.3579 18.1852 72.643 17.0689 73.213 16.1003C73.7831 15.1154 74.5649 14.3438 75.5585 13.7857C76.5684 13.2111 77.7086 12.9238 78.979 12.9238C80.0866 12.9238 81.072 13.1372 81.9353 13.5641C82.8149 13.9909 83.556 14.5901 84.1586 15.3616L82.3995 17.0853C82.0412 16.5272 81.5851 16.0839 81.0313 15.7556C80.4938 15.4109 79.8423 15.2385 79.0768 15.2385C78.3275 15.2385 77.6597 15.4191 77.0733 15.7802C76.4869 16.1414 76.0309 16.6421 75.7051 17.2823C75.3794 17.9061 75.2165 18.6284 75.2165 19.4492C75.2165 20.27 75.3794 21.0005 75.7051 21.6408C76.0309 22.281 76.4869 22.7817 77.0733 23.1428C77.6597 23.504 78.3275 23.6845 79.0768 23.6845C79.8423 23.6845 80.4938 23.5122 81.0313 23.1674C81.5851 22.8227 82.0412 22.3795 82.3995 21.8377Z" fill="white"/>
<path d="M63.6618 25.9992C62.375 25.9992 61.2267 25.7201 60.2168 25.162C59.2233 24.6038 58.4414 23.8323 57.8714 22.8473C57.3013 21.8624 57.0162 20.7297 57.0162 19.4492C57.0162 18.1852 57.3013 17.0607 57.8714 16.0757C58.4414 15.0907 59.2233 14.3192 60.2168 13.761C61.2267 13.2029 62.375 12.9238 63.6618 12.9238C64.9648 12.9238 66.1131 13.2029 67.1067 13.761C68.1166 14.3192 68.8984 15.0907 69.4522 16.0757C70.0223 17.0607 70.3073 18.1852 70.3073 19.4492C70.3073 20.7297 70.0223 21.8624 69.4522 22.8473C68.8984 23.8323 68.1166 24.6038 67.1067 25.162C66.1131 25.7201 64.9648 25.9992 63.6618 25.9992ZM63.6618 23.6845C64.4273 23.6845 65.0951 23.504 65.6652 23.1428C66.2353 22.7817 66.6751 22.2892 66.9846 21.6654C67.3103 21.0251 67.4732 20.2864 67.4732 19.4492C67.4732 18.6284 67.3103 17.9061 66.9846 17.2823C66.6751 16.6421 66.2353 16.1414 65.6652 15.7802C65.0951 15.4191 64.4273 15.2385 63.6618 15.2385C62.9125 15.2385 62.2529 15.4191 61.6828 15.7802C61.1127 16.1414 60.6648 16.6421 60.339 17.2823C60.0295 17.9061 59.8748 18.6284 59.8748 19.4492C59.8748 20.2864 60.0295 21.0251 60.339 21.6654C60.6648 22.2892 61.1127 22.7817 61.6828 23.1428C62.2529 23.504 62.9125 23.6845 63.6618 23.6845Z" fill="white"/>
<path d="M40 25.6062V8H45.937C47.7939 8 49.4145 8.37757 50.799 9.13271C52.1998 9.88785 53.2829 10.9303 54.0485 12.26C54.8303 13.5732 55.2212 15.0835 55.2212 16.7908C55.2212 18.4981 54.8303 20.0165 54.0485 21.3462C53.2829 22.6759 52.1998 23.7184 50.799 24.4735C49.4145 25.2286 47.7939 25.6062 45.937 25.6062H40ZM42.8097 23.1684H45.937C47.2401 23.1684 48.3639 22.9058 49.3086 22.3805C50.2696 21.8387 51.0026 21.0918 51.5075 20.1397C52.0288 19.1875 52.2894 18.0712 52.2894 16.7908C52.2894 15.5103 52.0288 14.3941 51.5075 13.4419C51.0026 12.4898 50.2696 11.7511 49.3086 11.2258C48.3639 10.7004 47.2401 10.4378 45.937 10.4378H42.8097V23.1684Z" fill="white"/>
<defs>
<clipPath id="clip0_3522_532">
<rect width="26" height="26" fill="white" transform="translate(8 4)"/>
</clipPath>
</defs>
</svg>
